<?xml version="1.0" encoding="UTF-8" standalone="no"?>
<!-- Created with Inkscape (http://www.inkscape.org/) -->

<svg
   width="489.22711mm"
   height="115.52627mm"
   viewBox="0 0 489.22712 115.52625"
   version="1.1"
   id="svg8"
   sodipodi:docname="logo_Scat_README.svg"
   inkscape:version="1.3.2 (091e20ef0f, 2023-11-25, custom)"
   xmlns:inkscape="http://www.inkscape.org/namespaces/inkscape"
   xmlns:sodipodi="http://sodipodi.sourceforge.net/DTD/sodipodi-0.dtd"
   xmlns:xlink="http://www.w3.org/1999/xlink"
   xmlns="http://www.w3.org/2000/svg"
   xmlns:svg="http://www.w3.org/2000/svg"
   xmlns:rdf="http://www.w3.org/1999/02/22-rdf-syntax-ns#"
   xmlns:cc="http://creativecommons.org/ns#"
   xmlns:dc="http://purl.org/dc/elements/1.1/">
  <defs
     id="defs2">
    <marker
       inkscape:stockid="Arrow2Lend"
       orient="auto"
       refY="0"
       refX="0"
       id="Arrow2Lend"
       style="overflow:visible"
       inkscape:isstock="true">
      <path
         id="path5506"
         style="fill:#a9d18e;fill-opacity:1;fill-rule:evenodd;stroke:#a9d18e;stroke-width:0.625;stroke-linejoin:round;stroke-opacity:1"
         d="M 8.7185878,4.0337352 -2.2072895,0.01601326 8.7185884,-4.0017078 c -1.7454984,2.3720609 -1.7354408,5.6174519 -6e-7,8.035443 z"
         transform="matrix(-1.1,0,0,-1.1,-1.1,0)"
         inkscape:connector-curvature="0" />
    </marker>
    <marker
       inkscape:stockid="Arrow1Lend"
       orient="auto"
       refY="0"
       refX="0"
       id="Arrow1Lend"
       style="overflow:visible"
       inkscape:isstock="true">
      <path
         id="path5488"
         d="M 0,0 5,-5 -12.5,0 5,5 Z"
         style="fill:#000000;fill-opacity:1;fill-rule:evenodd;stroke:#000000;stroke-width:1.00000003pt;stroke-opacity:1"
         transform="matrix(-0.8,0,0,-0.8,-10,0)"
         inkscape:connector-curvature="0" />
    </marker>
    <linearGradient
       inkscape:collect="always"
       id="linearGradient4922">
      <stop
         style="stop-color:#000600;stop-opacity:1;"
         offset="0"
         id="stop4918" />
      <stop
         style="stop-color:#000600;stop-opacity:0;"
         offset="1"
         id="stop4920" />
    </linearGradient>
    <linearGradient
       id="I">
      <stop
         id="c" />
      <stop
         stop-opacity="0"
         id="d"
         offset="1" />
    </linearGradient>
    <linearGradient
       id="J">
      <stop
         stop-color="#737373"
         id="e" />
      <stop
         stop-opacity="0"
         stop-color="#737373"
         id="f"
         offset="1" />
    </linearGradient>
    <linearGradient
       id="K">
      <stop
         stop-color="#555"
         id="g" />
      <stop
         stop-color="#bbb"
         id="h"
         offset="1" />
    </linearGradient>
    <linearGradient
       id="L">
      <stop
         stop-color="#afafaf"
         id="i" />
      <stop
         stop-color="#888"
         id="j"
         offset="1" />
    </linearGradient>
    <linearGradient
       id="M">
      <stop
         stop-color="#eee"
         id="k" />
      <stop
         stop-opacity="0"
         stop-color="#eee"
         id="l"
         offset="1" />
    </linearGradient>
    <linearGradient
       id="N">
      <stop
         stop-color="#8f6b32"
         id="m" />
      <stop
         stop-color="#80602c"
         id="n"
         offset="1" />
    </linearGradient>
    <linearGradient
       id="O">
      <stop
         stop-color="#ddd"
         id="o" />
      <stop
         stop-color="#c0c0c0"
         id="p"
         offset="1" />
    </linearGradient>
    <linearGradient
       id="P">
      <stop
         stop-opacity="0.6"
         stop-color="#eee"
         id="q" />
      <stop
         stop-opacity="0"
         stop-color="#eee"
         id="r"
         offset="1" />
    </linearGradient>
    <linearGradient
       id="Q">
      <stop
         stop-color="#fff"
         id="s" />
      <stop
         stop-opacity="0"
         stop-color="#fff"
         id="t"
         offset="1" />
    </linearGradient>
    <linearGradient
       y2="6037.5298"
       x2="2375.5"
       y1="6145.3101"
       x1="2482.96"
       gradientUnits="userSpaceOnUse"
       id="R"
       xlink:href="#I" />
    <radialGradient
       gradientUnits="userSpaceOnUse"
       gradientTransform="matrix(1.4952966,-0.03240257,0.02371273,1.0942826,-13.241932,-4.885029)"
       r="51.640999"
       cy="-3.3340001"
       cx="43.893002"
       id="S"
       xlink:href="#Q" />
    <radialGradient
       gradientUnits="userSpaceOnUse"
       gradientTransform="matrix(3.997274,-0.03923134,0.00832319,0.8480486,-269.48909,9.0424597)"
       r="30.466"
       cy="0.354"
       cx="98.889999"
       id="T"
       xlink:href="#P" />
    <radialGradient
       gradientTransform="matrix(2.1079797,-0.1619128,0.07658391,0.9970631,-93.372912,13.308219)"
       gradientUnits="userSpaceOnUse"
       r="16.827999"
       cy="50.450001"
       cx="78.947998"
       id="U"
       xlink:href="#O" />
    <radialGradient
       gradientUnits="userSpaceOnUse"
       gradientTransform="matrix(1,0,0,0.9922685,0,0.69856)"
       r="27.059999"
       cy="72.040001"
       cx="54.866001"
       id="V"
       xlink:href="#N" />
    <radialGradient
       gradientUnits="userSpaceOnUse"
       gradientTransform="matrix(1.8055164,-0.07880052,0.0433107,0.9923561,-51.269444,5.462792)"
       r="27.301001"
       cy="48.48"
       cx="57.877998"
       id="W"
       xlink:href="#M" />
    <radialGradient
       gradientUnits="userSpaceOnUse"
       gradientTransform="matrix(1,0,0,1.0947923,0,-5.7883482)"
       r="51.25"
       cy="17.830999"
       cx="47.279999"
       id="X"
       xlink:href="#L" />
    <filter
       id="Y">
      <feGaussianBlur
         id="u"
         stdDeviation="0.74616" />
    </filter>
    <linearGradient
       gradientUnits="userSpaceOnUse"
       y2="9.7670002"
       x2="90.540001"
       y1="-25.663"
       x1="93.629997"
       id="Z"
       xlink:href="#K" />
    <linearGradient
       gradientUnits="userSpaceOnUse"
       y2="32.457001"
       x2="68.835999"
       y1="-26.391001"
       x1="75.32"
       id="a"
       xlink:href="#J" />
    <radialGradient
       gradientUnits="userSpaceOnUse"
       gradientTransform="matrix(1,0,0,0.1818182,0,99.954538)"
       r="18.333"
       cy="122.17"
       cx="26.25"
       id="b"
       xlink:href="#I" />
    <radialGradient
       inkscape:collect="always"
       xlink:href="#M"
       id="radialGradient4628"
       cx="67.825485"
       cy="206.25787"
       fx="67.825485"
       fy="206.25787"
       r="26.488758"
       gradientUnits="userSpaceOnUse"
       gradientTransform="matrix(1.6290273,1.3496602,-1.1782465,1.4221327,279.20238,-171.55356)" />
    <radialGradient
       inkscape:collect="always"
       xlink:href="#M"
       id="radialGradient4670"
       gradientUnits="userSpaceOnUse"
       gradientTransform="matrix(1.8808438,1.5582919,-1.3603809,1.6419673,302.02659,-237.51093)"
       cx="67.825485"
       cy="206.25787"
       fx="67.825485"
       fy="206.25787"
       r="26.488758" />
    <filter
       inkscape:collect="always"
       style="color-interpolation-filters:sRGB"
       id="filter4914"
       x="-0.07346253"
       width="1.1469251"
       y="-0.21273091"
       height="1.4254618">
      <feGaussianBlur
         inkscape:collect="always"
         stdDeviation="1.6081943"
         id="feGaussianBlur4916" />
    </filter>
    <linearGradient
       inkscape:collect="always"
       xlink:href="#linearGradient4922"
       id="linearGradient4924"
       x1="210.40402"
       y1="254.95137"
       x2="273.68585"
       y2="254.95137"
       gradientUnits="userSpaceOnUse" />
    <clipPath
       clipPathUnits="userSpaceOnUse"
       id="clipPath4967">
      <g
         id="g4973"
         transform="matrix(1.1262278,0,0,1.1262278,141.0312,267.08494)">
        <circle
           cy="217.75975"
           cx="162.09851"
           id="circle4969"
           style="fill:#007fec;fill-opacity:1;stroke:none;stroke-width:0.07026106;stroke-linecap:square;stroke-miterlimit:4;stroke-dasharray:none;stroke-dashoffset:0;stroke-opacity:1;paint-order:normal"
           r="30.548286" />
        <circle
           cy="217.75975"
           cx="162.09851"
           id="circle4971"
           style="fill:url(#radialGradient4975);fill-opacity:1;stroke:none;stroke-width:0.07026106;stroke-linecap:square;stroke-miterlimit:4;stroke-dasharray:none;stroke-dashoffset:0;stroke-opacity:1;paint-order:normal"
           r="30.548285" />
      </g>
    </clipPath>
    <radialGradient
       inkscape:collect="always"
       xlink:href="#M"
       id="radialGradient4975"
       gradientUnits="userSpaceOnUse"
       gradientTransform="matrix(1.8808438,1.5582919,-1.3603809,1.6419673,302.02659,-237.51093)"
       cx="67.825485"
       cy="206.25787"
       fx="67.825485"
       fy="206.25787"
       r="26.488758" />
    <clipPath
       clipPathUnits="userSpaceOnUse"
       id="clipPath5050">
      <circle
         r="34.404331"
         style="fill:#007fec;fill-opacity:1;stroke:none;stroke-width:0.07912996;stroke-linecap:square;stroke-miterlimit:4;stroke-dasharray:none;stroke-dashoffset:0;stroke-opacity:1;paint-order:normal"
         id="circle5052"
         cx="101.75735"
         cy="492.01953" />
    </clipPath>
    <clipPath
       clipPathUnits="userSpaceOnUse"
       id="clipPath5050-4">
      <circle
         r="34.404331"
         style="fill:#007fec;fill-opacity:1;stroke:none;stroke-width:0.07912996;stroke-linecap:square;stroke-miterlimit:4;stroke-dasharray:none;stroke-dashoffset:0;stroke-opacity:1;paint-order:normal"
         id="circle5052-0"
         cx="101.75735"
         cy="492.01953" />
    </clipPath>
    <clipPath
       clipPathUnits="userSpaceOnUse"
       id="clipPath5140">
      <circle
         r="34.404327"
         style="opacity:0.67000002;fill:url(#radialGradient5144);fill-opacity:1;stroke:none;stroke-width:0.07912996;stroke-linecap:square;stroke-miterlimit:4;stroke-dasharray:none;stroke-dashoffset:0;stroke-opacity:1;paint-order:normal"
         id="circle5142"
         cx="502.12708"
         cy="439.6347" />
    </clipPath>
    <radialGradient
       inkscape:collect="always"
       xlink:href="#M"
       id="radialGradient5144"
       gradientUnits="userSpaceOnUse"
       gradientTransform="matrix(2.1182586,1.7549917,-1.5320988,1.8492292,659.71792,-73.103792)"
       cx="67.825485"
       cy="206.25787"
       fx="67.825485"
       fy="206.25787"
       r="26.488758" />
    <clipPath
       clipPathUnits="userSpaceOnUse"
       id="clipPath5235">
      <circle
         r="34.404327"
         style="opacity:0.67000002;fill:url(#radialGradient5239);fill-opacity:1;stroke:none;stroke-width:0.07912996;stroke-linecap:square;stroke-miterlimit:4;stroke-dasharray:none;stroke-dashoffset:0;stroke-opacity:1;paint-order:normal"
         id="circle5237"
         cx="524.04315"
         cy="574.87305" />
    </clipPath>
    <radialGradient
       inkscape:collect="always"
       xlink:href="#M"
       id="radialGradient5239"
       gradientUnits="userSpaceOnUse"
       gradientTransform="matrix(2.1182586,1.7549917,-1.5320988,1.8492292,681.63402,62.134542)"
       cx="67.825485"
       cy="206.25787"
       fx="67.825485"
       fy="206.25787"
       r="26.488758" />
    <marker
       inkscape:stockid="Arrow2Lend"
       orient="auto"
       refY="0"
       refX="0"
       id="Arrow2Lend-9"
       style="overflow:visible"
       inkscape:isstock="true">
      <path
         inkscape:connector-curvature="0"
         id="path5506-0"
         style="fill:#000000;fill-opacity:1;fill-rule:evenodd;stroke:#000000;stroke-width:0.625;stroke-linejoin:round;stroke-opacity:1"
         d="M 8.7185878,4.0337352 -2.2072895,0.01601326 8.7185884,-4.0017078 c -1.7454984,2.3720609 -1.7354408,5.6174519 -6e-7,8.035443 z"
         transform="matrix(-1.1,0,0,-1.1,-1.1,0)" />
    </marker>
    <marker
       inkscape:stockid="Arrow2Lend"
       orient="auto"
       refY="0"
       refX="0"
       id="Arrow2Lend-4"
       style="overflow:visible"
       inkscape:isstock="true">
      <path
         inkscape:connector-curvature="0"
         id="path5506-8"
         style="fill:#e49c00;fill-opacity:1;fill-rule:evenodd;stroke:#e49c00;stroke-width:0.625;stroke-linejoin:round;stroke-opacity:1"
         d="M 8.7185878,4.0337352 -2.2072895,0.01601326 8.7185884,-4.0017078 c -1.7454984,2.3720609 -1.7354408,5.6174519 -6e-7,8.035443 z"
         transform="matrix(-1.1,0,0,-1.1,-1.1,0)" />
    </marker>
    <clipPath
       id="clip0">
      <rect
         id="rect5856"
         height="259"
         width="253"
         y="147"
         x="386" />
    </clipPath>
    <radialGradient
       inkscape:collect="always"
       xlink:href="#M"
       id="radialGradient5968"
       gradientUnits="userSpaceOnUse"
       gradientTransform="matrix(2.8436927,2.3560188,-2.0567924,2.4825296,654.92172,-423.82612)"
       cx="67.825485"
       cy="206.25787"
       fx="67.825485"
       fy="206.25787"
       r="26.488758" />
    <marker
       inkscape:stockid="Arrow2Lend"
       orient="auto"
       refY="0"
       refX="0"
       id="Arrow2Lend-8"
       style="overflow:visible"
       inkscape:isstock="true">
      <path
         id="path5506-3"
         style="fill:#004500;fill-opacity:1;fill-rule:evenodd;stroke:#004500;stroke-width:0.625;stroke-linejoin:round;stroke-opacity:1"
         d="M 8.7185878,4.0337352 -2.2072895,0.01601326 8.7185884,-4.0017078 c -1.7454984,2.3720609 -1.7354408,5.6174519 -6e-7,8.035443 z"
         transform="matrix(-1.1,0,0,-1.1,-1.1,0)"
         inkscape:connector-curvature="0" />
    </marker>
    <marker
       inkscape:stockid="Arrow2Lend"
       orient="auto"
       refY="0"
       refX="0"
       id="Arrow2Lend-8-5"
       style="overflow:visible"
       inkscape:isstock="true">
      <path
         id="path5506-3-8"
         style="fill:#724e00;fill-opacity:1;fill-rule:evenodd;stroke:#724e00;stroke-width:0.625;stroke-linejoin:round;stroke-opacity:1"
         d="M 8.7185878,4.0337352 -2.2072895,0.01601326 8.7185884,-4.0017078 c -1.7454984,2.3720609 -1.7354408,5.6174519 -6e-7,8.035443 z"
         transform="matrix(-1.1,0,0,-1.1,-1.1,0)"
         inkscape:connector-curvature="0" />
    </marker>
    <marker
       inkscape:stockid="Arrow2Lend"
       orient="auto"
       refY="0"
       refX="0"
       id="Arrow2Lend-8-5-5"
       style="overflow:visible"
       inkscape:isstock="true">
      <path
         id="path5506-3-8-1"
         style="fill:#000006;fill-opacity:1;fill-rule:evenodd;stroke:#000200;stroke-width:0.625;stroke-linejoin:round;stroke-opacity:1"
         d="M 8.7185878,4.0337352 -2.2072895,0.01601326 8.7185884,-4.0017078 c -1.7454984,2.3720609 -1.7354408,5.6174519 -6e-7,8.035443 z"
         transform="matrix(-1.1,0,0,-1.1,-1.1,0)"
         inkscape:connector-curvature="0" />
    </marker>
    <marker
       inkscape:stockid="Arrow2Lend"
       orient="auto"
       refY="0"
       refX="0"
       id="Arrow2Lend-8-5-1"
       style="overflow:visible"
       inkscape:isstock="true">
      <path
         id="path5506-3-8-6"
         style="fill:#000006;fill-opacity:1;fill-rule:evenodd;stroke:#000200;stroke-width:0.625;stroke-linejoin:round;stroke-opacity:1"
         d="M 8.7185878,4.0337352 -2.2072895,0.01601326 8.7185884,-4.0017078 c -1.7454984,2.3720609 -1.7354408,5.6174519 -6e-7,8.035443 z"
         transform="matrix(-1.1,0,0,-1.1,-1.1,0)"
         inkscape:connector-curvature="0" />
    </marker>
    <linearGradient
       inkscape:collect="always"
       xlink:href="#linearGradient4922"
       id="linearGradient6147"
       gradientUnits="userSpaceOnUse"
       x1="210.40402"
       y1="254.95137"
       x2="273.68585"
       y2="254.95137" />
  </defs>
  <sodipodi:namedview
     id="base"
     pagecolor="#ffffff"
     bordercolor="#666666"
     borderopacity="1.0"
     inkscape:pageopacity="0.0"
     inkscape:pageshadow="2"
     inkscape:zoom="0.49497476"
     inkscape:cx="757.61439"
     inkscape:cy="139.40105"
     inkscape:document-units="mm"
     inkscape:current-layer="layer1"
     showgrid="false"
     inkscape:window-width="1920"
     inkscape:window-height="1008"
     inkscape:window-x="0"
     inkscape:window-y="0"
     inkscape:window-maximized="1"
     showguides="true"
     units="mm"
     fit-margin-top="0"
     fit-margin-left="0"
     fit-margin-right="0"
     fit-margin-bottom="0"
     inkscape:snap-grids="false"
     inkscape:snap-global="false"
     inkscape:snap-bbox="true"
     inkscape:bbox-nodes="true"
     inkscape:showpageshadow="0"
     inkscape:pagecheckerboard="0"
     inkscape:deskcolor="#d1d1d1">
    <inkscape:grid
       type="xygrid"
       id="grid4618"
       originx="1.1480708"
       originy="20.704905"
       spacingy="1"
       spacingx="1"
       units="mm"
       visible="false" />
  </sodipodi:namedview>
  <metadata
     id="metadata5">
    <rdf:RDF>
      <cc:Work
         rdf:about="">
        <dc:format>image/svg+xml</dc:format>
        <dc:type
           rdf:resource="http://purl.org/dc/dcmitype/StillImage" />
        <dc:title />
      </cc:Work>
    </rdf:RDF>
  </metadata>
  <g
     inkscape:label="Ebene 1"
     inkscape:groupmode="layer"
     id="layer1"
     transform="translate(-3.4021602,-202.02526)">
    <path
       style="font-weight:bold;font-size:47.0606px;line-height:125%;font-family:Calibri;-inkscape-font-specification:'Calibri, Bold';text-align:center;letter-spacing:0px;word-spacing:0px;text-anchor:middle;stroke-width:0.490209px"
       d="m 20.923322,284.39312 q -0.229788,0.45958 -0.551492,0.66639 -0.298724,0.18383 -0.7583,0.18383 -0.436598,0 -0.942132,-0.32171 -0.505533,-0.3217 -1.194898,-0.68936 -0.666385,-0.39064 -1.562559,-0.71234 -0.896173,-0.32171 -2.068092,-0.32171 -2.068093,0 -3.125118,1.01107 -1.0340469,1.01107 -1.0340469,2.64256 0,1.03405 0.5514919,1.72341 0.57447,0.66639 1.493622,1.17192 0.942131,0.48256 2.114051,0.8732 1.194898,0.39064 2.435753,0.85021 1.240856,0.4366 2.412775,1.05703 1.194898,0.59745 2.114051,1.5166 0.942131,0.91915 1.493622,2.25192 0.57447,1.33277 0.57447,3.24002 0,2.06809 -0.689364,3.88341 -0.666385,1.81533 -1.976177,3.17108 -1.309793,1.33277 -3.217034,2.11405 -1.884262,0.78128 -4.320016,0.78128 -1.378728,0 -2.7574568,-0.29873 Q 8.5607225,308.91151 7.296888,308.383 6.0330535,307.85448 4.9070919,307.11916 3.7811303,306.38384 2.9309144,305.46469 l 1.7923471,-2.87235 q 0.2068092,-0.34469 0.5514914,-0.55149 0.3676609,-0.20681 0.7812795,-0.20681 0.5514914,0 1.1259616,0.43659 0.597449,0.41362 1.3787285,0.94213 0.7812795,0.50554 1.8153255,0.94214 1.034047,0.41361 2.458733,0.41361 2.068093,0 3.217033,-1.05702 1.148941,-1.05703 1.148941,-3.12512 0,-1.17192 -0.574471,-1.90724 -0.551491,-0.73532 -1.470643,-1.21788 -0.919153,-0.50553 -2.114051,-0.85021 -1.171919,-0.36766 -2.412775,-0.78128 -1.2178766,-0.41362 -2.4127746,-0.98809 -1.1719193,-0.59745 -2.0910716,-1.56256 -0.9191524,-0.96511 -1.4936226,-2.3898 -0.5514914,-1.42468 -0.5514914,-3.53873 0,-1.67746 0.6434067,-3.26299 0.6434066,-1.60852 1.8842623,-2.84938 1.2408556,-1.24085 3.0332027,-1.97617 1.8153255,-0.7583 4.1361855,-0.7583 2.619584,0 4.848529,0.85021 2.251923,0.85022 3.837461,2.3898 z m 6.204278,32.17033 v -30.21713 h 3.584694 q 0.551491,0 0.919152,0.25277 0.39064,0.25276 0.505534,0.78128 l 0.482555,1.99915 q 0.689364,-0.7583 1.447665,-1.40171 0.7583,-0.6434 1.631495,-1.10298 0.896174,-0.45957 1.907241,-0.71234 1.034047,-0.25277 2.228945,-0.25277 1.815326,0 3.331927,0.78128 1.516601,0.78128 2.619584,2.2749 1.102983,1.47065 1.700432,3.65363 0.620428,2.18299 0.620428,4.96343 0,2.55064 -0.689364,4.73363 -0.689365,2.18299 -1.953199,3.7915 -1.263835,1.58554 -3.056182,2.50469 -1.769368,0.89618 -3.975334,0.89618 -1.861283,0 -3.148096,-0.55149 -1.286814,-0.57447 -2.32086,-1.53958 v 9.14556 z m 10.708124,-26.03499 q -1.631495,0 -2.757457,0.66639 -1.125961,0.6434 -2.11405,1.88426 v 10.11068 q 0.873195,1.05702 1.884262,1.49362 1.034047,0.41362 2.205966,0.41362 1.125962,0 2.045114,-0.4366 0.942131,-0.45958 1.608516,-1.37873 0.666386,-0.91915 1.011068,-2.32086 0.367661,-1.42468 0.367661,-3.37788 0,-1.93022 -0.298725,-3.26299 -0.298724,-1.35575 -0.850215,-2.18299 -0.551492,-0.85022 -1.332771,-1.21788 -0.78128,-0.39064 -1.769369,-0.39064 z m 14.591547,18.63582 v -33.02055 h 5.836617 v 12.50047 q 1.309792,-1.1949 2.826394,-1.93022 1.53958,-0.73532 3.65363,-0.73532 1.861284,0 3.28597,0.6434 1.424686,0.64341 2.389796,1.79235 0.96511,1.14894 1.447665,2.75746 0.505534,1.58554 0.505534,3.4698 v 14.52261 h -5.836618 v -14.52261 q 0,-1.9532 -0.896173,-3.0332 -0.896174,-1.08001 -2.688521,-1.08001 -1.332771,0 -2.50469,0.57447 -1.14894,0.57447 -2.182987,1.60852 v 16.45283 z m 34.766934,-23.18562 q 2.160008,0 3.975334,0.71234 1.815326,0.68937 3.125118,2.02214 1.309792,1.30979 2.045114,3.24001 0.735322,1.93022 0.735322,4.41193 0,0.66639 -0.06894,1.10298 -0.06894,0.41362 -0.229788,0.66639 -0.137873,0.25276 -0.413619,0.36766 -0.252767,0.0919 -0.643407,0.0919 H 82.069931 q 0.137873,1.65448 0.597449,2.87236 0.459576,1.21787 1.217877,1.99915 0.758301,0.78128 1.792347,1.17192 1.034046,0.36766 2.297881,0.36766 1.263834,0 2.182987,-0.29872 0.942131,-0.32171 1.631495,-0.66639 0.712343,-0.36766 1.263835,-0.66638 0.551491,-0.32171 1.080004,-0.32171 0.643406,0 1.057025,0.52852 l 1.677453,2.16 q -0.942131,1.10299 -2.091072,1.83831 -1.14894,0.71234 -2.389796,1.14894 -1.217877,0.41362 -2.481711,0.59745 -1.263835,0.18383 -2.435754,0.18383 -2.366817,0 -4.411931,-0.78128 -2.045114,-0.78128 -3.561715,-2.32086 -1.516602,-1.56256 -2.389797,-3.83746 -0.850216,-2.29788 -0.850216,-5.30811 0,-2.32086 0.758301,-4.36597 0.758301,-2.06809 2.160008,-3.58469 1.424686,-1.53958 3.446822,-2.43576 2.022135,-0.89617 4.572782,-0.89617 z m 0.114894,4.15916 q -2.228944,0 -3.492778,1.30979 -1.263835,1.28682 -1.631496,3.65364 h 9.6511 q 0,-0.98809 -0.275746,-1.88427 -0.252767,-0.89617 -0.827237,-1.58553 -0.551491,-0.68937 -1.401707,-1.08001 -0.850216,-0.41362 -2.022136,-0.41362 z m 13.718351,19.02646 v -22.81796 h 3.42384 q 0.89618,0 1.24086,0.3217 0.36766,0.32171 0.48255,1.12596 l 0.29873,2.32086 q 1.03405,-1.9532 2.41277,-3.07916 1.37873,-1.12596 3.19406,-1.12596 1.49362,0 2.45873,0.71234 l -0.4366,4.36598 q -0.046,0.41362 -0.27574,0.59745 -0.22979,0.16085 -0.62043,0.16085 -0.34468,0 -0.98809,-0.0919 -0.64341,-0.11489 -1.1949,-0.11489 -0.80426,0 -1.44766,0.22979 -0.62043,0.22979 -1.12596,0.68936 -0.48256,0.4366 -0.8732,1.08001 -0.39064,0.6434 -0.71234,1.47064 v 14.15495 z m 16.269,0 z m 6.64088,-22.81796 v 22.81796 h -5.83662 v -22.81796 z m 0.71234,-6.54896 q 0,0.7583 -0.29872,1.42468 -0.29873,0.64341 -0.80426,1.14895 -0.50554,0.48255 -1.1949,0.78127 -0.68936,0.27575 -1.44767,0.27575 -0.73532,0 -1.4017,-0.27575 -0.64341,-0.29872 -1.14894,-0.78127 -0.48256,-0.50554 -0.78128,-1.14895 -0.27575,-0.66638 -0.27575,-1.42468 0,-0.7583 0.27575,-1.42469 0.29872,-0.66638 0.78128,-1.14894 0.50553,-0.50553 1.14894,-0.78128 0.66638,-0.29872 1.4017,-0.29872 0.75831,0 1.44767,0.29872 0.68936,0.27575 1.1949,0.78128 0.50553,0.48256 0.80426,1.14894 0.29872,0.66639 0.29872,1.42469 z m 19.6239,11.53536 q -0.25277,0.3217 -0.50554,0.52851 -0.25276,0.18383 -0.71234,0.18383 -0.4366,0 -0.80426,-0.25276 -0.36766,-0.25277 -0.85021,-0.55149 -0.45958,-0.32171 -1.10299,-0.57447 -0.62043,-0.25277 -1.58554,-0.25277 -1.19489,0 -2.09107,0.50553 -0.87319,0.50554 -1.44766,1.44767 -0.57447,0.94213 -0.8732,2.29788 -0.27574,1.35575 -0.27574,3.0332 0,3.56172 1.21787,5.49194 1.21788,1.90724 3.35491,1.90724 1.12596,0 1.79235,-0.32171 0.66638,-0.3217 1.12596,-0.68936 0.45958,-0.39064 0.82724,-0.71234 0.39064,-0.32171 0.91915,-0.32171 0.66638,0 1.03405,0.52852 l 1.70043,2.16 q -0.91916,1.10299 -1.9532,1.83831 -1.03405,0.71234 -2.13703,1.14894 -1.08,0.4366 -2.20597,0.59745 -1.10298,0.18383 -2.18298,0.18383 -1.93022,0 -3.65363,-0.78128 -1.70044,-0.80426 -3.01023,-2.32086 -1.28681,-1.5166 -2.04511,-3.69959 -0.7583,-2.20596 -0.7583,-5.00938 0,-2.50469 0.66638,-4.64172 0.66639,-2.13703 1.9532,-3.69959 1.30979,-1.58553 3.21703,-2.48171 1.93022,-0.89617 4.45789,-0.89617 2.3898,0 4.20513,0.85021 1.81532,0.82724 3.26299,2.41278 z m 20.0605,17.83156 q -0.82723,0 -1.26383,-0.22979 -0.4366,-0.25277 -0.68937,-0.98809 l -0.50553,-1.5166 q -0.8732,0.7583 -1.67745,1.33277 -0.80426,0.57447 -1.67746,0.96511 -0.85021,0.39064 -1.8383,0.57447 -0.96511,0.20681 -2.16001,0.20681 -1.47064,0 -2.68852,-0.39064 -1.21788,-0.41362 -2.11405,-1.1949 -0.87319,-0.78128 -1.35575,-1.93022 -0.48255,-1.17192 -0.48255,-2.68852 0,-1.26383 0.6434,-2.52767 0.64341,-1.26383 2.18299,-2.2749 1.56256,-1.03405 4.13618,-1.70043 2.59661,-0.68937 6.45705,-0.78128 v -1.21788 q 0,-2.20596 -0.91915,-3.24001 -0.91916,-1.03405 -2.64257,-1.03405 -1.28681,0 -2.13703,0.29873 -0.82723,0.29872 -1.47064,0.66638 -0.64341,0.34468 -1.1949,0.64341 -0.55149,0.29872 -1.24085,0.29872 -0.59745,0 -1.03405,-0.29872 -0.41362,-0.3217 -0.66638,-0.7583 l -1.05703,-1.83831 q 1.97618,-1.8383 4.36597,-2.73447 2.3898,-0.89618 5.17024,-0.89618 1.99915,0 3.58469,0.66639 1.58554,0.6434 2.68852,1.8383 1.10298,1.17192 1.67745,2.80342 0.57447,1.63149 0.57447,3.58469 v 14.36176 z m -7.99662,-3.63066 q 1.56256,0 2.68852,-0.55149 1.14894,-0.57447 2.2749,-1.74639 v -3.67661 q -2.2749,0.0919 -3.7915,0.39064 -1.49363,0.27575 -2.3898,0.73533 -0.89617,0.43659 -1.28681,1.03404 -0.36766,0.59745 -0.36766,1.28682 0,1.37872 0.7583,1.95319 0.78128,0.57447 2.11405,0.57447 z m 21.80688,-29.38989 v 33.02055 h -5.83662 v -33.02055 z m 21.71498,8.24939 q -0.22979,0.45958 -0.55149,0.66639 -0.29872,0.18383 -0.7583,0.18383 -0.4366,0 -0.94213,-0.32171 -0.50554,-0.3217 -1.1949,-0.68936 -0.66639,-0.39064 -1.56256,-0.71234 -0.89617,-0.32171 -2.06809,-0.32171 -2.06809,0 -3.12512,1.01107 -1.03405,1.01107 -1.03405,2.64256 0,1.03405 0.55149,1.72341 0.57448,0.66639 1.49363,1.17192 0.94213,0.48256 2.11405,0.8732 1.1949,0.39064 2.43575,0.85021 1.24086,0.4366 2.41278,1.05703 1.19489,0.59745 2.11405,1.5166 0.94213,0.91915 1.49362,2.25192 0.57447,1.33277 0.57447,3.24002 0,2.06809 -0.68936,3.88341 -0.66639,1.81533 -1.97618,3.17108 -1.30979,1.33277 -3.21704,2.11405 -1.88426,0.78128 -4.32001,0.78128 -1.37873,0 -2.75746,-0.29873 -1.35575,-0.27574 -2.61958,-0.80425 -1.26384,-0.52852 -2.3898,-1.26384 -1.12596,-0.73532 -1.97618,-1.65447 l 1.79235,-2.87235 q 0.20681,-0.34469 0.55149,-0.55149 0.36766,-0.20681 0.78128,-0.20681 0.55149,0 1.12596,0.43659 0.59745,0.41362 1.37873,0.94213 0.78128,0.50554 1.81533,0.94214 1.03404,0.41361 2.45873,0.41361 2.06809,0 3.21703,-1.05702 1.14894,-1.05703 1.14894,-3.12512 0,-1.17192 -0.57447,-1.90724 -0.55149,-0.73532 -1.47064,-1.21788 -0.91915,-0.50553 -2.11405,-0.85021 -1.17192,-0.36766 -2.41278,-0.78128 -1.21787,-0.41362 -2.41277,-0.98809 -1.17192,-0.59745 -2.09107,-1.56256 -0.91915,-0.96511 -1.49362,-2.3898 -0.5515,-1.42468 -0.5515,-3.53873 0,-1.67746 0.64341,-3.26299 0.64341,-1.60852 1.88426,-2.84938 1.24086,-1.24085 3.03321,-1.97617 1.81532,-0.7583 4.13618,-0.7583 2.61959,0 4.84853,0.85021 2.25192,0.85022 3.83746,2.3898 z m 20.86476,6.9396 q -0.25277,0.3217 -0.50554,0.52851 -0.25276,0.18383 -0.71234,0.18383 -0.4366,0 -0.80426,-0.25276 -0.36766,-0.25277 -0.85021,-0.55149 -0.45958,-0.32171 -1.10299,-0.57447 -0.62042,-0.25277 -1.58553,-0.25277 -1.1949,0 -2.09108,0.50553 -0.87319,0.50554 -1.44766,1.44767 -0.57447,0.94213 -0.8732,2.29788 -0.27574,1.35575 -0.27574,3.0332 0,3.56172 1.21788,5.49194 1.21787,1.90724 3.3549,1.90724 1.12596,0 1.79235,-0.32171 0.66638,-0.3217 1.12596,-0.68936 0.45958,-0.39064 0.82724,-0.71234 0.39064,-0.32171 0.91915,-0.32171 0.66638,0 1.03405,0.52852 l 1.70043,2.16 q -0.91915,1.10299 -1.9532,1.83831 -1.03405,0.71234 -2.13703,1.14894 -1.08,0.4366 -2.20597,0.59745 -1.10298,0.18383 -2.18298,0.18383 -1.93022,0 -3.65363,-0.78128 -1.70044,-0.80426 -3.01023,-2.32086 -1.28681,-1.5166 -2.04511,-3.69959 -0.7583,-2.20596 -0.7583,-5.00938 0,-2.50469 0.66638,-4.64172 0.66639,-2.13703 1.9532,-3.69959 1.30979,-1.58553 3.21704,-2.48171 1.93022,-0.89617 4.45788,-0.89617 2.3898,0 4.20513,0.85021 1.81532,0.82724 3.26299,2.41278 z m 20.06049,17.83156 q -0.82724,0 -1.26384,-0.22979 -0.43659,-0.25277 -0.68936,-0.98809 l -0.50554,-1.5166 q -0.87319,0.7583 -1.67745,1.33277 -0.80426,0.57447 -1.67745,0.96511 -0.85022,0.39064 -1.83831,0.57447 -0.96511,0.20681 -2.16,0.20681 -1.47065,0 -2.68852,-0.39064 -1.21788,-0.41362 -2.11406,-1.1949 -0.87319,-0.78128 -1.35574,-1.93022 -0.48256,-1.17192 -0.48256,-2.68852 0,-1.26383 0.64341,-2.52767 0.6434,-1.26383 2.18298,-2.2749 1.56256,-1.03405 4.13619,-1.70043 2.5966,-0.68937 6.45704,-0.78128 v -1.21788 q 0,-2.20596 -0.91915,-3.24001 -0.91915,-1.03405 -2.64256,-1.03405 -1.28681,0 -2.13703,0.29873 -0.82724,0.29872 -1.47064,0.66638 -0.64341,0.34468 -1.1949,0.64341 -0.55149,0.29872 -1.24086,0.29872 -0.59745,0 -1.03404,-0.29872 -0.41362,-0.3217 -0.66639,-0.7583 l -1.05702,-1.83831 q 1.97617,-1.8383 4.36597,-2.73447 2.3898,-0.89618 5.17023,-0.89618 1.99916,0 3.5847,0.66639 1.58553,0.6434 2.68852,1.8383 1.10298,1.17192 1.67745,2.80342 0.57447,1.63149 0.57447,3.58469 v 14.36176 z m -7.99663,-3.63066 q 1.56256,0 2.68852,-0.55149 1.14894,-0.57447 2.2749,-1.74639 v -3.67661 q -2.2749,0.0919 -3.7915,0.39064 -1.49362,0.27575 -2.38979,0.73533 -0.89618,0.43659 -1.28682,1.03404 -0.36766,0.59745 -0.36766,1.28682 0,1.37872 0.7583,1.95319 0.78128,0.57447 2.11405,0.57447 z m 22.54222,3.97534 q -2.98725,0 -4.59576,-1.70043 -1.58554,-1.72341 -1.58554,-4.71066 v -12.45451 h -2.11405 q -0.45958,0 -0.80426,-0.29873 -0.3217,-0.3217 -0.3217,-0.91915 v -2.32086 l 3.53873,-0.66639 1.21788,-6.02044 q 0.20681,-0.94213 1.28681,-0.94213 h 3.03321 v 7.03151 h 8.7779 l 1.24086,-6.08938 q 0.20681,-0.94213 1.28681,-0.94213 h 3.0332 v 7.03151 h 5.7447 v 4.13619 h -5.7447 v 12.06387 q 0,1.01107 0.45958,1.58554 0.45957,0.55149 1.26383,0.55149 0.4366,0 0.73532,-0.0919 0.32171,-0.11489 0.5515,-0.25276 0.22978,-0.13787 0.39064,-0.22979 0.18383,-0.11489 0.39064,-0.11489 0.43659,0 0.7583,0.52851 l 1.76936,2.82639 q -1.21787,0.98809 -2.75745,1.49362 -1.53958,0.50554 -3.19406,0.50554 -3.01022,0 -4.61874,-1.70043 -1.58553,-1.72341 -1.58553,-4.71066 v -12.45451 h -8.50216 v 12.06387 q 0,1.01107 0.45957,1.58554 0.45958,0.55149 1.26384,0.55149 0.43659,0 0.73532,-0.0919 0.3217,-0.11489 0.52851,-0.25276 0.22979,-0.13787 0.39064,-0.22979 0.18383,-0.11489 0.39064,-0.11489 0.25277,0 0.41362,0.13787 0.16085,0.11489 0.34468,0.39064 l 1.76937,2.82639 q -1.21788,0.98809 -2.75746,1.49362 -1.53958,0.50554 -3.19405,0.50554 z m 32.81374,-23.5303 q 2.16001,0 3.97533,0.71234 1.81533,0.68937 3.12512,2.02214 1.30979,1.30979 2.04512,3.24001 0.73532,1.93022 0.73532,4.41193 0,0.66639 -0.0689,1.10298 -0.0689,0.41362 -0.22979,0.66639 -0.13787,0.25276 -0.41362,0.36766 -0.25276,0.0919 -0.6434,0.0919 h -13.64941 q 0.13787,1.65448 0.59744,2.87236 0.45958,1.21787 1.21788,1.99915 0.7583,0.78128 1.79235,1.17192 1.03404,0.36766 2.29788,0.36766 1.26383,0 2.18299,-0.29872 0.94213,-0.32171 1.63149,-0.66639 0.71234,-0.36766 1.26384,-0.66638 0.55149,-0.32171 1.08,-0.32171 0.64341,0 1.05703,0.52852 l 1.67745,2.16 q -0.94213,1.10299 -2.09107,1.83831 -1.14894,0.71234 -2.3898,1.14894 -1.21788,0.41362 -2.48171,0.59745 -1.26384,0.18383 -2.43575,0.18383 -2.36682,0 -4.41194,-0.78128 -2.04511,-0.78128 -3.56171,-2.32086 -1.5166,-1.56256 -2.3898,-3.83746 -0.85021,-2.29788 -0.85021,-5.30811 0,-2.32086 0.7583,-4.36597 0.7583,-2.06809 2.16001,-3.58469 1.42468,-1.53958 3.44682,-2.43576 2.02213,-0.89617 4.57278,-0.89617 z m 0.11489,4.15916 q -2.22894,0 -3.49278,1.30979 -1.26383,1.28682 -1.63149,3.65364 h 9.6511 q 0,-0.98809 -0.27575,-1.88427 -0.25276,-0.89617 -0.82723,-1.58553 -0.5515,-0.68937 -1.40171,-1.08001 -0.85022,-0.41362 -2.02214,-0.41362 z m 13.71836,19.02646 v -22.81796 h 3.42385 q 0.89617,0 1.24085,0.3217 0.36766,0.32171 0.48256,1.12596 l 0.29872,2.32086 q 1.03405,-1.9532 2.41278,-3.07916 1.37872,-1.12596 3.19405,-1.12596 1.49362,0 2.45873,0.71234 l -0.4366,4.36598 q -0.046,0.41362 -0.27574,0.59745 -0.22979,0.16085 -0.62043,0.16085 -0.34468,0 -0.98809,-0.0919 -0.6434,-0.11489 -1.1949,-0.11489 -0.80425,0 -1.44766,0.22979 -0.62043,0.22979 -1.12596,0.68936 -0.48256,0.4366 -0.8732,1.08001 -0.39064,0.6434 -0.71234,1.47064 v 14.15495 z m 16.269,0 z m 6.64088,-22.81796 v 22.81796 h -5.83662 v -22.81796 z m 0.71234,-6.54896 q 0,0.7583 -0.29872,1.42468 -0.29873,0.64341 -0.80426,1.14895 -0.50553,0.48255 -1.1949,0.78127 -0.68936,0.27575 -1.44766,0.27575 -0.73533,0 -1.40171,-0.27575 -0.64341,-0.29872 -1.14894,-0.78127 -0.48256,-0.50554 -0.78128,-1.14895 -0.27575,-0.66638 -0.27575,-1.42468 0,-0.7583 0.27575,-1.42469 0.29872,-0.66638 0.78128,-1.14894 0.50553,-0.50553 1.14894,-0.78128 0.66638,-0.29872 1.40171,-0.29872 0.7583,0 1.44766,0.29872 0.68937,0.27575 1.1949,0.78128 0.50553,0.48256 0.80426,1.14894 0.29872,0.66639 0.29872,1.42469 z m 4.98638,29.36692 v -22.81796 h 3.5847 q 0.55149,0 0.91915,0.25277 0.39064,0.25276 0.50553,0.78128 l 0.39064,1.67745 q 0.68937,-0.68937 1.42469,-1.24086 0.73532,-0.57447 1.58554,-0.96511 0.85021,-0.41362 1.79234,-0.6434 0.96511,-0.22979 2.11405,-0.22979 1.86129,0 3.28597,0.6434 1.42469,0.64341 2.3898,1.79235 0.96511,1.14894 1.44766,2.75746 0.50554,1.58554 0.50554,3.4698 v 14.52261 h -5.83662 v -14.52261 q 0,-1.9532 -0.89617,-3.0332 -0.89618,-1.08001 -2.68852,-1.08001 -1.33277,0 -2.50469,0.57447 -1.14894,0.57447 -2.18299,1.60852 v 16.45283 z m 32.99758,-23.2086 q 1.37873,0 2.59661,0.29872 1.24085,0.29873 2.2749,0.85022 h 6.34215 v 2.18299 q 0,0.50553 -0.29872,0.80425 -0.27575,0.29873 -0.94213,0.4366 l -1.79235,0.36766 q 0.41362,1.14894 0.41362,2.43576 0,1.70043 -0.66639,3.07916 -0.6434,1.35575 -1.81532,2.32086 -1.14894,0.96511 -2.73448,1.49362 -1.56256,0.50553 -3.37789,0.50553 -0.55149,0 -1.08,-0.046 -0.52851,-0.046 -1.05703,-0.13788 -0.85021,0.55149 -0.85021,1.28682 0,0.66638 0.59745,0.96511 0.59745,0.29872 1.56256,0.43659 0.96511,0.1149 2.20596,0.16086 1.24086,0.023 2.52767,0.13787 1.30979,0.11489 2.55065,0.39064 1.24085,0.27574 2.20596,0.89617 0.96511,0.62043 1.56256,1.65448 0.59745,1.03404 0.59745,2.66554 0,1.5166 -0.71234,2.94128 -0.71234,1.44767 -2.06809,2.57363 -1.35575,1.12596 -3.33193,1.79235 -1.97618,0.68936 -4.50385,0.68936 -2.48171,0 -4.32001,-0.50553 -1.83831,-0.50553 -3.03321,-1.33277 -1.19489,-0.82724 -1.79234,-1.93022 -0.57447,-1.08001 -0.57447,-2.25193 0,-1.53958 0.87319,-2.5966 0.8732,-1.08 2.41278,-1.72341 -0.80426,-0.45958 -1.3098,-1.26384 -0.48255,-0.80425 -0.48255,-2.04511 0,-0.50553 0.16085,-1.03405 0.18383,-0.55149 0.55149,-1.08 0.36766,-0.55149 0.89618,-1.03405 0.52851,-0.48255 1.26383,-0.87319 -1.65447,-0.94213 -2.61958,-2.48171 -0.94213,-1.56256 -0.94213,-3.65363 0,-1.70043 0.66638,-3.05618 0.66639,-1.37873 1.81533,-2.32086 1.17192,-0.96511 2.75745,-1.47065 1.60852,-0.52851 3.4698,-0.52851 z m 5.44598,24.17371 q 0,-0.62043 -0.34468,-1.01107 -0.34468,-0.39064 -0.94213,-0.59745 -0.59745,-0.22979 -1.40171,-0.3217 -0.80426,-0.1149 -1.72341,-0.16086 -0.89617,-0.0689 -1.88426,-0.11489 -0.96511,-0.046 -1.90724,-0.16085 -0.7583,0.48255 -1.24086,1.12596 -0.45958,0.64341 -0.45958,1.49362 0,0.57447 0.22979,1.05703 0.25277,0.48255 0.80426,0.82724 0.55149,0.34468 1.47064,0.52851 0.91916,0.20681 2.27491,0.20681 1.42468,0 2.38979,-0.22979 0.98809,-0.20681 1.58554,-0.59745 0.62043,-0.36766 0.8732,-0.89617 0.27574,-0.52852 0.27574,-1.14894 z m -5.44598,-13.14388 q 1.76937,0 2.59661,-0.96511 0.85021,-0.96511 0.85021,-2.55065 0,-1.60852 -0.85021,-2.52767 -0.82724,-0.94213 -2.59661,-0.94213 -1.74639,0 -2.5966,0.94213 -0.82724,0.91915 -0.82724,2.52767 0,1.56256 0.82724,2.55065 0.85021,0.96511 2.5966,0.96511 z"
       id="text1033"
       aria-label="SphericalScattering" />
    <g
       id="g6164"
       transform="matrix(0.73446416,0,0,0.73446416,83.698756,74.060135)">
      <path
         sodipodi:nodetypes="ccccc"
         inkscape:connector-curvature="0"
         id="path6024-4"
         d="m 521.94293,198.97039 c 3.91859,9.71213 13.64384,12.36952 13.12857,39.98244 2.23879,23.0601 -8.12737,30.43399 -10.14479,43.56296 -0.9145,-11.63281 1.13262,-23.85795 -7.16104,-34.01492 5.60786,-14.40244 4.7541,-32.03569 4.17726,-49.53048 z"
         style="fill:#e49c00;fill-opacity:1;stroke:#724e00;stroke-width:0.74239784;stroke-linecap:butt;stroke-linejoin:miter;stroke-miterlimit:4;stroke-dasharray:none;stroke-opacity:1" />
      <path
         sodipodi:nodetypes="ccccc"
         inkscape:connector-curvature="0"
         id="path6024-5"
         d="m 510.58313,205.09318 c 3.91859,9.71214 13.64383,12.36952 13.12856,39.98244 2.2388,23.06011 -8.12737,30.43399 -10.14478,43.56297 -0.9145,-11.63282 1.13262,-23.85795 -7.16104,-34.01493 5.60786,-14.40244 4.7541,-32.03569 4.17726,-49.53048 z"
         style="fill:#e49c00;fill-opacity:1;stroke:#724e00;stroke-width:0.74239784;stroke-linecap:butt;stroke-linejoin:miter;stroke-miterlimit:4;stroke-dasharray:none;stroke-opacity:1" />
      <path
         sodipodi:nodetypes="ccccc"
         inkscape:connector-curvature="0"
         id="path5971-3-0"
         d="m 328.79408,204.21725 c 17.02323,-3.89034 22.05567,-18.05848 30.64437,-29.17839 2.22602,21.90679 7.38015,44.69203 -2.76429,62.88768 -10.72155,20.03502 -19.4649,18.30969 -29.02508,25.56971 1.30692,-17.1381 6.88254,-22.18158 1.145,-59.279 z"
         style="fill:#a9d18e;fill-opacity:1;stroke:#004500;stroke-width:0.62379521;stroke-linecap:butt;stroke-linejoin:miter;stroke-miterlimit:4;stroke-dasharray:none;stroke-opacity:1" />
      <path
         sodipodi:nodetypes="ccccc"
         inkscape:connector-curvature="0"
         id="path5971-3"
         d="m 342.9653,209.10386 c 17.02323,-3.89032 22.05566,-18.05846 30.64437,-29.17837 2.22601,21.90679 7.38015,44.69202 -2.7643,62.88768 -10.72155,20.03503 -19.46488,18.30969 -29.02508,25.56972 1.30693,-17.1381 6.88256,-22.18159 1.14501,-59.27903 z"
         style="fill:#a9d18e;fill-opacity:1;stroke:#004500;stroke-width:0.62379521;stroke-linecap:butt;stroke-linejoin:miter;stroke-miterlimit:4;stroke-dasharray:none;stroke-opacity:1" />
      <g
         id="g6143">
        <path
           style="fill:url(#linearGradient6147);fill-opacity:1;stroke:none;stroke-width:0.07229107;stroke-linecap:square;stroke-miterlimit:4;stroke-dasharray:none;stroke-dashoffset:0;stroke-opacity:1;paint-order:normal;filter:url(#filter4914)"
           id="path4672"
           transform="matrix(1.7456383,-4.3364428e-4,4.3364428e-4,1.7456383,37.552792,-148.76858)"
           sodipodi:type="arc"
           sodipodi:cx="242.04494"
           sodipodi:cy="254.95137"
           sodipodi:rx="26.269627"
           sodipodi:ry="9.0717106"
           sodipodi:start="0"
           sodipodi:end="6.2321654"
           d="m 268.31456,254.95137 a 26.269627,9.0717106 0 0 1 -25.93456,9.07097 26.269627,9.0717106 0 0 1 -26.59614,-8.83958 26.269627,9.0717106 0 0 1 25.25612,-9.29646 26.269627,9.0717106 0 0 1 27.2404,8.60243 l -26.23544,0.46264 z" />
        <circle
           r="46.186684"
           style="fill:#007fec;fill-opacity:1;stroke:none;stroke-width:0.10622938;stroke-linecap:square;stroke-miterlimit:4;stroke-dasharray:none;stroke-dashoffset:0;stroke-opacity:1;paint-order:normal"
           id="path4620-3"
           cx="443.36111"
           cy="264.50851" />
        <circle
           r="46.18668"
           style="fill:url(#radialGradient5968);fill-opacity:1;stroke:none;stroke-width:0.10622938;stroke-linecap:square;stroke-miterlimit:4;stroke-dasharray:none;stroke-dashoffset:0;stroke-opacity:1;paint-order:normal"
           id="path4620"
           cx="443.36111"
           cy="264.50851" />
      </g>
      <path
         sodipodi:nodetypes="ccccc"
         inkscape:connector-curvature="0"
         id="path5971"
         d="m 355.09438,219.42683 c 17.02324,-3.89032 22.05567,-18.05846 30.64438,-29.17838 2.22601,21.9068 7.38015,44.69203 -2.7643,62.88768 -10.72155,20.03503 -19.4649,18.3097 -29.02508,25.56971 1.30693,-17.13809 6.88254,-22.18157 1.145,-59.27901 z"
         style="fill:#a9d18e;fill-opacity:1;stroke:#004500;stroke-width:0.62379521;stroke-linecap:butt;stroke-linejoin:miter;stroke-miterlimit:4;stroke-dasharray:none;stroke-opacity:1" />
      <path
         inkscape:connector-curvature="0"
         id="path5483-99"
         d="m 375.64458,234.60226 c 18.66955,9.74858 18.66955,9.74858 18.66955,9.74858"
         style="fill:#004500;fill-opacity:1;stroke:#004500;stroke-width:1.00800002;stroke-linecap:butt;stroke-linejoin:miter;stroke-miterlimit:4;stroke-dasharray:none;stroke-opacity:1;marker-end:url(#Arrow2Lend-8)" />
      <path
         sodipodi:nodetypes="ccccc"
         inkscape:connector-curvature="0"
         id="path6024"
         d="m 499.99311,209.78975 c 3.91859,9.71213 13.64383,12.36952 13.12856,39.98244 2.2388,23.0601 -8.12737,30.43399 -10.14478,43.56295 -0.9145,-11.6328 1.13262,-23.85794 -7.16104,-34.01491 5.60786,-14.40244 4.7541,-32.03569 4.17726,-49.53048 z"
         style="fill:#e49c00;fill-opacity:1;stroke:#724e00;stroke-width:0.74239784;stroke-linecap:butt;stroke-linejoin:miter;stroke-miterlimit:4;stroke-dasharray:none;stroke-opacity:1" />
      <path
         inkscape:connector-curvature="0"
         id="path5483-99-4"
         d="m 535.30179,242.37529 c 19.65847,-5.8392 19.65847,-5.8392 19.65847,-5.8392"
         style="fill:#724e00;fill-opacity:1;stroke:#724e00;stroke-width:1.12531877;stroke-linecap:butt;stroke-linejoin:miter;stroke-miterlimit:4;stroke-dasharray:none;stroke-opacity:1;marker-end:url(#Arrow2Lend-8-5)" />
      <path
         inkscape:connector-curvature="0"
         id="path5483-99-4-7"
         d="m 491.76014,254.73371 c 13.63842,-3.84305 13.63842,-3.84305 13.63842,-3.84305"
         style="fill:#000006;fill-opacity:1;stroke:#724e00;stroke-width:1.11638761;stroke-linecap:butt;stroke-linejoin:miter;stroke-miterlimit:4;stroke-dasharray:none;stroke-opacity:1" />
      <path
         inkscape:connector-curvature="0"
         id="path5483-99-4-7-1"
         d="m 513.38524,248.30539 c 5.14251,-1.33375 5.14251,-1.33375 5.14251,-1.33375"
         style="fill:#000006;fill-opacity:1;stroke:#724e00;stroke-width:1;stroke-linecap:butt;stroke-linejoin:miter;stroke-miterlimit:4;stroke-dasharray:none;stroke-opacity:1" />
      <path
         inkscape:connector-curvature="0"
         id="path5483-99-4-7-1-2"
         d="m 523.88145,245.25408 c 5.3,-1.42493 5.3,-1.42493 5.3,-1.42493"
         style="fill:#000006;fill-opacity:1;stroke:#724e00;stroke-width:1;stroke-linecap:butt;stroke-linejoin:miter;stroke-miterlimit:4;stroke-dasharray:none;stroke-opacity:1" />
    </g>
  </g>
</svg>
